Coordinates
version=1
nRows=21
nColumns=27
inDegrees=yes

Units are S.I. units (second, meters, Newtons, ...)
If the header above contains a line with 'inDegrees', this indicates whether rotational values are in degrees (yes) or radians (no).

endheader
time	pelvis_rotation	pelvis_tilt	pelvis_list	pelvis_tx	pelvis_ty	pelvis_tz	hip_flexion_r	hip_adduction_r	hip_rotation_r	knee_angle_r	knee_rotation_r	knee_adduction_r	knee_angle_r_beta	ankle_angle_r	subtalar_angle_r	mtp_angle_r	hip_flexion_l	hip_adduction_l	hip_rotation_l	knee_angle_l	knee_rotation_l	knee_adduction_l	knee_angle_l_beta	ankle_angle_l	subtalar_angle_l	mtp_angle_l
      0.09500000	      5.35850670	    -49.29947170	      5.02379030	     -0.08432089	      0.72606772	     -1.20587557	    108.55517108	    -15.78615895	     -9.25100852	     77.82189484	     -8.67154239	      8.23681521	      1.35824830	     15.38797285	     -4.17334688	      0.00000000	    106.51529745	     -8.23318270	    -10.05011874	     73.73124321	     -9.26035621	     -9.36078917	      1.28685296	     15.29553678	      3.02567429	      0.00000000
      0.10000000	      4.95297877	    -49.15970749	      4.48650264	     -0.08386625	      0.72478712	     -1.20560785	    108.40613915	    -15.45121583	    -10.02155040	     77.96972653	     -9.24624853	      8.79982831	      1.36082844	     15.37477829	     -4.86847269	      0.00000000	    106.62167827	     -8.45400106	    -10.05173089	     74.08760666	     -9.60591399	     -9.65404455	      1.29307267	     15.46374431	      2.85827604	      0.00000000
      0.10500000	      4.83259955	    -49.16468235	      4.35589614	     -0.08392478	      0.72259628	     -1.20538769	    108.69130881	    -15.27071842	     -9.88829712	     78.40046448	     -9.27010653	      8.76601866	      1.36834624	     15.46708971	     -5.11509769	      0.00000000	    106.96809251	     -8.55881766	     -9.88681942	     74.58776143	     -9.61594084	     -9.65548734	      1.30180202	     15.61348000	      2.78774131	      0.00000000
      0.11000000	      5.45479719	    -49.28188342	      4.96619554	     -0.08444406	      0.71943594	     -1.20551281	    109.46821245	    -15.62818082	     -8.80624809	     79.20360048	     -8.76320330	      8.13648640	      1.38236361	     15.73305721	     -4.75853115	      0.00000000	    107.50302567	     -8.16500234	     -9.63122024	     75.16596760	     -9.31514296	     -9.36609469	      1.31189362	     15.74779793	      2.70666503	      0.00000000
      0.11500000	      5.21502866	    -49.16826590	      4.54588219	     -0.08405173	      0.71835400	     -1.20537268	    109.34285240	    -15.44154808	     -9.54987917	     79.33250317	     -9.30526826	      8.70416446	      1.38461338	     15.70701338	     -5.42603836	      0.00000000	    107.60820969	     -8.24658217	     -9.62828235	     75.45720225	     -9.63573508	     -9.65279492	      1.31697662	     15.85739117	      2.51923394	      0.00000000
      0.12000000	      4.89176359	    -49.15818185	      4.22998457	     -0.08408177	      0.71646299	     -1.20503006	    109.51264200	    -15.11374368	     -9.51617543	     79.66142746	     -9.32404008	      8.65842954	      1.39035420	     15.76582671	     -5.68714967	      0.00000000	    107.91132309	     -8.50908146	     -9.42681634	     75.92685809	     -9.64288283	     -9.65492912	      1.32517366	     16.02206293	      2.51357863	      0.00000000
      0.12500000	      4.61282609	    -49.20530725	      4.13204819	     -0.08448497	      0.71371380	     -1.20450561	    109.95867913	    -14.73808270	     -8.70537325	     80.21935049	     -8.86387733	      8.01643703	      1.40009179	     15.95536838	     -5.50795769	      0.00000000	    108.35659970	     -8.86407149	     -9.07232001	     76.55763448	     -9.35202818	     -9.36585928	      1.33618279	     16.22959107	      2.73708969	      0.00000000
      0.13000000	      4.72261013	    -49.16511167	      4.21645223	     -0.08423656	      0.71273557	     -1.20462303	    110.07594598	    -14.74071025	     -9.07567563	     80.40802939	     -9.35346050	      8.54709140	      1.40338486	     15.91258513	     -6.08661951	      0.00000000	    108.43430590	     -8.74525725	     -9.35508942	     76.73133118	     -9.65782680	     -9.65106453	      1.33921437	     16.31388794	      2.49544062	      0.00000000
      0.13500000	      5.06724996	    -49.17902499	      4.42618595	     -0.08429666	      0.71091821	     -1.20467647	    110.39432683	    -14.95762978	     -8.90992716	     80.82896805	     -9.35457978	      8.54730750	      1.41073162	     15.99788673	     -6.23550647	      0.00000000	    108.72329859	     -8.48155503	     -9.27216855	     77.08413773	     -9.66543014	     -9.65210944	      1.34537200	     16.38106431	      2.35823322	      0.00000000
      0.14000000	      5.77575769	    -49.23977946	      4.85028326	     -0.08440338	      0.70917503	     -1.20507222	    110.80318180	    -15.50114829	     -8.74043575	     81.28772956	     -9.36638299	      8.54217149	      1.41873852	     16.16717736	     -6.20692791	      0.00000000	    109.04991828	     -7.87922928	     -9.18950193	     77.35335416	     -9.67314952	     -9.64566184	      1.35007072	     16.34658719	      2.06543886	      0.00000000
      0.14500000	      5.28540217	    -49.20149888	      4.40344881	     -0.08441326	      0.70762760	     -1.20457983	    110.85118719	    -15.04998240	     -8.78498531	     81.50995821	     -9.38416485	      8.48169718	      1.42261714	     16.18150372	     -6.48267939	      0.00000000	    109.28331641	     -8.29477432	     -8.97767727	     77.78147461	     -9.67688847	     -9.64523049	      1.35754283	     16.54823809	      2.24371917	      0.00000000
      0.15000000	      5.69440501	    -49.27579800	      4.84626249	     -0.08483282	      0.70516836	     -1.20456632	    111.42983138	    -15.23178169	     -7.85723015	     82.11282654	     -8.93479670	      7.84490697	      1.43313918	     16.38977501	     -6.06833027	      0.00000000	    109.68038732	     -8.09126127	     -8.79002467	     78.23306628	     -9.41186530	     -9.34570974	      1.36542459	     16.64291968	      2.33521662	      0.00000000
      0.15500000	      5.87857364	    -49.24702338	      4.81798843	     -0.08458454	      0.70450721	     -1.20470821	    111.44883225	    -15.37964180	     -8.41311587	     82.22811154	     -9.39568997	      8.41469376	      1.43515128	     16.37381098	     -6.65307408	      0.00000000	    109.78297401	     -7.87060122	     -8.92157844	     78.36041190	     -9.68870984	     -9.63914644	      1.36764719	     16.64446130	      2.03898653	      0.00000000
      0.16000000	      4.83593157	    -49.19420478	      3.78957852	     -0.08461504	      0.70329438	     -1.20386566	    111.26304702	    -14.55648222	     -8.79838773	     82.27317610	     -9.42594933	      8.35956356	      1.43593781	     16.32871455	     -7.01821805	      0.00000000	    110.03889721	     -8.66403065	     -8.46052676	     78.80569093	     -9.68951277	     -9.64224020	      1.37541878	     16.79133602	      2.28191215	      0.00000000
      0.16500000	      5.75505255	    -49.26886469	      4.80148607	     -0.08501585	      0.70091599	     -1.20420920	    111.99962642	    -15.08579821	     -7.57626192	     82.95713676	     -8.97225192	      7.74191466	      1.44787517	     16.57745774	     -6.47819603	      0.00000000	    110.33270749	     -8.11832983	     -8.57340637	     79.13989579	     -9.43711655	     -9.33401931	      1.38125175	     16.88306582	      2.30066998	      0.00000000
      0.17000000	      5.44972101	    -49.24170296	      4.30864688	     -0.08480463	      0.70046017	     -1.20401155	    111.85682940	    -14.87052226	     -8.32890616	     82.94239008	     -9.43364108	      8.26968917	      1.44761780	     16.51978229	     -7.08506532	      0.00000000	    110.46517860	     -8.26685980	     -8.53540705	     79.31565382	     -9.69990928	     -9.63195540	      1.38431931	     16.87084338	      2.10668162	      0.00000000
      0.17500000	      5.97376937	    -49.30065503	      4.76415844	     -0.08492667	      0.69915057	     -1.20424693	    112.23636001	    -15.19462698	     -8.03413033	     83.28881570	     -9.42804344	      8.25340681	      1.45366406	     16.58709529	     -7.15797423	      0.00000000	    110.68369007	     -7.89375457	     -8.63172861	     79.50032732	     -9.70584291	     -9.62795927	      1.38754247	     16.88177496	      1.94482102	      0.00000000
      0.18000000	      5.78384074	    -49.31113436	      4.40183496	     -0.08500953	      0.69805237	     -1.20401577	    112.27170187	    -15.06944573	     -8.21700899	     83.44368186	     -9.44909306	      8.18756907	      1.45636699	     16.63782152	     -7.21675100	      0.00000000	    110.93742498	     -7.98531995	     -8.33299519	     79.79001539	     -9.70729174	     -9.62433066	      1.39259848	     16.95866757	      1.98713670	      0.00000000
      0.18500000	      5.63079295	    -49.26729735	      4.47163544	     -0.08511668	      0.69683563	     -1.20375421	    112.45585809	    -14.79462272	     -7.94311536	     83.68576238	     -9.44250259	      8.17584462	      1.46059209	     16.60002879	     -7.52357181	      0.00000000	    111.03073154	     -8.22676681	     -8.47880038	     80.04738779	     -9.71161999	     -9.62576952	      1.39709047	     17.02168880	      1.95433846	      0.00000000
      0.19000000	      4.96671419	    -49.30274638	      4.13891763	     -0.08545320	      0.69509258	     -1.20301723	    112.68909406	    -14.08989034	     -7.30606380	     83.96167429	     -9.03337299	      7.54054505	      1.46540766	     16.62310560	     -7.33214812	      0.00000000	    111.31263869	     -8.90797914	     -8.19196658	     80.48414307	     -9.46695074	     -9.31897906	      1.40471329	     17.20864675	      2.41655343	      0.00000000
      0.19500000	      5.75161918	    -49.33399656	      4.54395941	     -0.08533450	      0.69471406	     -1.20356816	    112.84933556	    -14.74884583	     -7.71842928	     84.11190409	     -9.44761842	      8.09322159	      1.46802967	     16.68654121	     -7.64100375	      0.00000000	    111.42047494	     -8.18468725	     -8.40283098	     80.46978263	     -9.71941607	     -9.61900831	      1.40446266	     17.10322135	      1.92842385	      0.00000000
